# xmcd CD database file
#
# Track frame offsets:
#	150
#	5010
#	7400
#	14450
#	58072
#	59227
#	76182
#	77345
#	85500
#	86979
#	96542
#	97865
#	98772
#	105967
#	107180
#	121725
#	130040
#	130885
#	137480
#
# Disc length: 2013 seconds
#
# Revision: 2
# Processed by: cddbd v1.5.2PL0 Copyright (c) Steve Scherf et al.
# Submitted via: CDex 1.51
#
DISCID=ee07db13
DTITLE=Waldramer Kinderchor - Das große Kinder-Adventsalbum
DYEAR=1995
DGENRE=
TTITLE0=Schneeflöckchen
TTITLE1=Mit Nüssen, mit Äpfeln
TTITLE2=Schneemann
TTITLE3=Der Schneemann
TTITLE4=Morgen will ich Schlitten fahren
TTITLE5=Der Mann von Grimsö und der Bär
TTITLE6=Der Esel
TTITLE7=Hänsel und Gretel
TTITLE8=Laterne, Laterne
TTITLE9=Der Winter ist gekommen
TTITLE10=ABC, die Katze lief im Schnee
TTITLE11=Rupprecht, Rupprecht
TTITLE12=Eurem Hirten bringet Lieder
TTITLE13=Nikolaus, komm in unser Haus
TTITLE14=Tochter Zion
TTITLE15=Morgen, Kinder, wirds was geben
TTITLE16=Lieber, lieber Nikolaus
TTITLE17=Ich gehe mit meiner Laterne
TTITLE18=Wer klopfet an?
EXTD=YEAR: 1995
EXTT0=
EXTT1=
EXTT2=
EXTT3=
EXTT4=
EXTT5=
EXTT6=
EXTT7=
EXTT8=
EXTT9=
EXTT10=
EXTT11=
EXTT12=
EXTT13=
EXTT14=
EXTT15=
EXTT16=
EXTT17=
EXTT18=
PLAYORDER=
